<svg xmlns="http://www.w3.org/2000/svg" viewBox="0 0 31.03 36"><defs><style>.a{fill:red;}.b{fill:#fff;}</style></defs><title>logo_svg_2018</title><rect class="a" width="31.03" height="36"/><path class="b" d="M2,33.73H2Zm-.1,0v0h0ZM4.07,33l.39-.12a.18.18,0,0,0,.14-.14c.15-.44.3-.89.44-1.33s.27-.8.4-1.2a6.82,6.82,0,0,1,.24-.71c.08-.17.11-.36.18-.54.15-.4.26-.82.4-1.23s.26-.75.39-1.13.16-.48.24-.73l.26-.75c.08-.23.15-.46.23-.69a.26.26,0,0,0-.06-.26.91.91,0,0,1,.52-1.56.2.2,0,0,0,.2-.16c.08-.24.14-.5.25-.74a.36.36,0,0,0,.05-.26L8,21.87a9,9,0,0,1-2,1.79A13.29,13.29,0,0,1,4,24.8a14.91,14.91,0,0,1-1.75.67.79.79,0,0,0-.31.12v8.09l1-.33ZM29,33.7l0,0h0Zm-.12-14.32a10.84,10.84,0,0,0-1.41-.26c-.11,0-.13,0-.11.13a.85.85,0,0,1,0,.4.88.88,0,0,1-.72.73.87.87,0,0,1-.92-.38,3,3,0,0,1-.36-.7s0-.1-.09-.12a1.23,1.23,0,0,0-.42,0c-.09,0-.11.13-.14.21-.1.32-.19.64-.28,1a.91.91,0,0,1-.77.75.89.89,0,0,1-1-1.12,1.22,1.22,0,0,1,.06-.21.36.36,0,0,0-.15-.53c-.08,0-.11-.05-.14,0l-.19.42c-.16.37-.36.73-.56,1.09l-.54,1c-.18.33-.37.66-.54,1s-.22.46-.32.69c0,0,0,.06,0,.09a.07.07,0,0,0,.08,0l.64-.22A22.2,22.2,0,0,0,23.8,22a.93.93,0,0,1,1.11.11.9.9,0,0,1-.26,1.48c-1,.49-1.92,1-2.93,1.39a5.5,5.5,0,0,1-1.93.44,1.41,1.41,0,0,1-1.44-1.61A5.48,5.48,0,0,1,19,22c.2-.4.43-.78.64-1.17s.45-.8.66-1.21a12.46,12.46,0,0,0,.58-1.25c0-.12,0-.16-.11-.14l-.45.1c-.07,0-.14.06-.1.16a1.05,1.05,0,0,1,0,.59,2.75,2.75,0,0,1-.34.89,12.77,12.77,0,0,1-1.05,1.52.93.93,0,0,1-1,.27,1,1,0,0,1-.58-1,.35.35,0,0,0,0-.23,5.73,5.73,0,0,0-.39.65c-.13.22-.24.46-.39.67a.88.88,0,0,1-1.41.08s-.06-.09-.1-.07-.33,0-.44.17a1.4,1.4,0,0,1-.85.46,1.17,1.17,0,0,1-.63,0,1.2,1.2,0,0,1-.78-1.12c0-.05,0-.13,0-.15s-.08.06-.11.1l0,.06c-.26.38-.52.75-.81,1.1a8.61,8.61,0,0,1-1.75,1.68.48.48,0,0,0-.2.24c-.07.2-.14.41-.2.61l-.41,1.23-.57,1.69-.6,1.78-.4,1.2L6.76,32s-.05.06,0,.1.07,0,.1,0l.92-.29,1.3-.41,1.3-.41,1.45-.46,1.3-.42,1.29-.41,1.31-.41L17,28.9l1.11-.35,1.29-.41,1.48-.47,1.28-.41,1.46-.47,1.31-.41,1.46-.47,1.28-.41L29,25.08V19.4S28.93,19.39,28.89,19.38Zm0,7.64-.78.25-1.29.41-1.28.41-1.3.41-1.12.36-1.28.4-1.47.47-1.28.4-1.49.47-.58.19c0,.05.06,0,.09.05l1.42.33,9.66,2.24a6,6,0,0,0,.85.18V27C29,27,28.9,27,28.85,27Zm-.57-14.17a1.51,1.51,0,0,1-1.22.47,1.36,1.36,0,0,1-.69-.27s-.1-.11-.15-.07a.85.85,0,0,0-.33.29.84.84,0,0,1-.67.5A.3.3,0,0,0,25,14a.89.89,0,0,1-1.12.43,1.75,1.75,0,0,0-.43-.12,7.69,7.69,0,0,0-1.75,0,.21.21,0,0,0-.19.14,5.38,5.38,0,0,1-.23.49.87.87,0,0,1-1.4.17c-.1-.1-.14-.09-.23,0a7.61,7.61,0,0,1-1.51,1.29,2.07,2.07,0,0,1-1.12.39,1.15,1.15,0,0,1-1.11-1.06c0-.25,0-.25-.26-.21h-.07l-.69.08-1,.13-1,.12a.28.28,0,0,0-.2.16,2.83,2.83,0,0,1-.4.63.89.89,0,0,1-1.05.16.88.88,0,0,1-.47-.84.36.36,0,0,0-.09-.26.9.9,0,0,1,0-1.13,1.08,1.08,0,0,1,.86-.37.27.27,0,0,0,.23-.15l.66-1.12a.9.9,0,0,0,.19-.69c0-.07,0-.1-.11-.08l-.36.08a.6.6,0,0,0-.35.2l-1.3,1.65L8.75,16.21a.19.19,0,0,0,0,.22,5,5,0,0,1,.5,2,3,3,0,0,0,0,.48c.09-.24.17-.47.24-.71a.91.91,0,0,1,.76-.67.85.85,0,0,1,.79.29.86.86,0,0,1,.21.39c0,.06,0,.16.12.16h.25a1.1,1.1,0,0,1,1.07.63.25.25,0,0,0,.11.12,3,3,0,0,1,.32-.76s0-.1,0-.13a.84.84,0,0,1-.34-.78.67.67,0,0,0,0-.25.8.8,0,0,1,.23-.9,1.87,1.87,0,0,1,1.36-.45.76.76,0,0,1,.43.19,1,1,0,0,1,.15,1.42,3.1,3.1,0,0,1-.51.59c-.07.07-.06.1,0,.16a.89.89,0,0,1,.25,1.15s0,.08,0,.12.08,0,.12,0a.82.82,0,0,1,.48,0,2.7,2.7,0,0,1,.4.17c.06,0,.09,0,.13,0A6.11,6.11,0,0,1,16,19a2.3,2.3,0,0,1,.42-.6.89.89,0,0,1,1.18.06c.07.07.1.12.19,0a1.53,1.53,0,0,1,1-.69c.1,0,.16-.06.15-.19a.86.86,0,0,1,.33-.76,1.46,1.46,0,0,1,.55-.23,4.48,4.48,0,0,1,1.42-.21,1.64,1.64,0,0,1,1,.35,1.39,1.39,0,0,1,.54,1c0,.07,0,.12.11.09a2.15,2.15,0,0,1,.34-.1.36.36,0,0,0,.31-.22,3.85,3.85,0,0,1,.6-1,1.33,1.33,0,0,1,.76-.5,1.2,1.2,0,0,1,1.21.42,2.78,2.78,0,0,1,.47.8.15.15,0,0,0,.17.11,6.53,6.53,0,0,1,.78,0,11.21,11.21,0,0,1,1.5.22V11.92l-.1.14A5.53,5.53,0,0,1,28.27,12.85ZM2.06,8.41,3.29,8l1.37-.47L6.1,7l1.26-.42,1.4-.46,1.78-.57,1.62-.53,1.58-.51a.28.28,0,0,0-.13-.05L3.12,1.91c-.4-.1-.8-.18-1.19-.31h0V8.43C2,8.46,2,8.43,2.06,8.41ZM2,10.55c.49.27,1,.54,1.46.83a21.89,21.89,0,0,1,2,1.38,13.92,13.92,0,0,1,2,1.86c.09.11.12.1.21,0L9,13.09s0,0,0-.07-.06,0-.09,0l-.66.17a.9.9,0,0,1-.7-.1.86.86,0,0,1-.42-.9.92.92,0,0,1,.72-.75c.44-.1.87-.19,1.3-.31l1.41-.34a.72.72,0,0,0,.47-.29c.15-.22.33-.41.49-.62A.89.89,0,0,1,13,10a1.52,1.52,0,0,0,.39.6c.09.07.1.2.17.3l.25-.41A.82.82,0,0,0,14,9.94a.78.78,0,0,1,.38-.82,2.3,2.3,0,0,0,.56-.44.88.88,0,0,1,1.28,0,.18.18,0,0,0,.15.08l.8-.09c.4,0,.8-.1,1.2-.14a.88.88,0,0,1,.9.75.2.2,0,0,0,.14.19.87.87,0,0,1,.48,1.16c-.12.28-.29.53-.43.79s-.37.68-.54,1-.3.59-.44.88-.18.39-.27.59c.15-.05.22-.18.31-.28a17,17,0,0,0,1.28-1.57c.32-.44.63-.88.92-1.33s.52-.81.77-1.22a1.3,1.3,0,0,1,.34-.45,1.11,1.11,0,0,0,.36-.43.87.87,0,0,1,1.3-.26.25.25,0,0,0,.25,0l.56-.14L25.2,8a2.07,2.07,0,0,1,.57-.1.89.89,0,0,1,.33,1.71,4,4,0,0,1-.62.17l-.9.22c-.31.08-.62.15-.92.23-.15,0-.34,0-.41.23s0,.11.06.11l.12,0a1.5,1.5,0,0,1,.58,0,.89.89,0,0,1,.65.84.88.88,0,0,1-.68.87c-.34.06-.69.09-1,.13a.56.56,0,0,0,.31.06,2.24,2.24,0,0,1,.77.12c.12,0,.16,0,.2-.09a1.32,1.32,0,0,1,.25-.44,7.41,7.41,0,0,1,1.59-1.16.88.88,0,0,1,1.12.2c.09.11.13.06.18,0l.58-.83c.22-.31.43-.64.65-.95a.58.58,0,0,1,.4-.26V1.6h-.09a3.62,3.62,0,0,1-.59.2L27,2.21l-1.32.41L24.42,3l-1.13.36-1.12.36-1.29.41-1.28.4-1.14.36L17,5.4l-1.28.41-1.45.47L13,6.68l-1.27.41-1.26.41L9,8l-1.46.48-1.41.47-1.6.54L3,10l-1,.35H1.9v.2C1.93,10.5,2,10.53,2,10.55ZM5.36,21.89A5.5,5.5,0,0,0,7.17,19.8a2.92,2.92,0,0,0,.06-2.3,6,6,0,0,0-1.44-2.11,17.25,17.25,0,0,0-3.56-2.64c-.1-.06-.19-.16-.33-.15v11a5.06,5.06,0,0,0,.61-.22A11.69,11.69,0,0,0,5.36,21.89Zm8.75-8c.1,0,.19,0,.29,0l1.09-.14a1.07,1.07,0,0,1,.7.08c.15.09.18.07.23-.09s.18-.43.27-.64l.16-.33c0-.06,0-.07-.08-.06-.27.06-.54.09-.81.13l-1.23.19c-.09,0-.2,0-.26.1l-.42.7C14,13.81,14,13.85,14.11,13.85ZM15.83,11l.63-.11a1.22,1.22,0,0,1,1.13.17s.07.05.1,0L18,10.5c0-.08,0-.09-.06-.08l-.59.07-1.09.14c-.18,0-.38,0-.47.21,0,0,0,.06,0,.09S15.8,11,15.83,11Z"/></svg>